<svg width="100" height="72" viewBox="0 0 100 72" fill="none" xmlns="http://www.w3.org/2000/svg">
<ellipse cx="3.42578" cy="2.92889" rx="2.5" ry="2.62469" fill="#377DFF"/>
<ellipse cx="3.42578" cy="46.7133" rx="2.5" ry="2.62469" fill="#377DFF"/>
<ellipse cx="40.8159" cy="2.92889" rx="2.5" ry="2.62469" fill="#377DFF"/>
<ellipse cx="40.8159" cy="46.7133" rx="2.5" ry="2.62469" fill="#377DFF"/>
<ellipse cx="78.2061" cy="2.92889" rx="2.5" ry="2.62469" fill="#377DFF"/>
<ellipse cx="78.2061" cy="46.7133" rx="2.5" ry="2.62469" fill="#377DFF"/>
<ellipse cx="3.42578" cy="24.821" rx="2.5" ry="2.62469" fill="#377DFF"/>
<ellipse cx="3.42578" cy="68.6052" rx="2.5" ry="2.62469" fill="#377DFF"/>
<ellipse cx="40.8159" cy="24.821" rx="2.5" ry="2.62469" fill="#377DFF"/>
<ellipse cx="40.8159" cy="68.6052" rx="2.5" ry="2.62469" fill="#377DFF"/>
<ellipse cx="78.2061" cy="24.821" rx="2.5" ry="2.62469" fill="#377DFF"/>
<ellipse cx="78.2061" cy="68.6052" rx="2.5" ry="2.62469" fill="#377DFF"/>
<ellipse cx="22.1206" cy="2.92889" rx="2.5" ry="2.62469" fill="#377DFF"/>
<ellipse cx="22.1206" cy="46.7133" rx="2.5" ry="2.62469" fill="#377DFF"/>
<ellipse cx="59.5107" cy="2.92889" rx="2.5" ry="2.62469" fill="#377DFF"/>
<ellipse cx="59.5107" cy="46.7133" rx="2.5" ry="2.62469" fill="#377DFF"/>
<ellipse cx="96.9009" cy="2.92889" rx="2.5" ry="2.62469" fill="#377DFF"/>
<ellipse cx="96.9009" cy="46.7133" rx="2.5" ry="2.62469" fill="#377DFF"/>
<ellipse cx="22.1206" cy="24.821" rx="2.5" ry="2.62469" fill="#377DFF"/>
<ellipse cx="22.1206" cy="68.6052" rx="2.5" ry="2.62469" fill="#377DFF"/>
<ellipse cx="59.5107" cy="24.821" rx="2.5" ry="2.62469" fill="#377DFF"/>
<ellipse cx="59.5107" cy="68.6052" rx="2.5" ry="2.62469" fill="#377DFF"/>
<ellipse cx="96.9009" cy="24.821" rx="2.5" ry="2.62469" fill="#377DFF"/>
<ellipse cx="96.9009" cy="68.6052" rx="2.5" ry="2.62469" fill="#377DFF"/>
</svg>
