<svg width="99" height="72" viewBox="0 0 99 72" fill="none" xmlns="http://www.w3.org/2000/svg">
<ellipse cx="2.77197" cy="3.11688" rx="2.5" ry="2.62469" fill="#F62424"/>
<ellipse cx="2.77197" cy="46.9013" rx="2.5" ry="2.62469" fill="#F62424"/>
<ellipse cx="40.1621" cy="3.11688" rx="2.5" ry="2.62469" fill="#F62424"/>
<ellipse cx="40.1621" cy="46.9013" rx="2.5" ry="2.62469" fill="#F62424"/>
<ellipse cx="77.5522" cy="3.11688" rx="2.5" ry="2.62469" fill="#F62424"/>
<ellipse cx="77.5522" cy="46.9013" rx="2.5" ry="2.62469" fill="#F62424"/>
<ellipse cx="2.77197" cy="25.009" rx="2.5" ry="2.62469" fill="#F62424"/>
<ellipse cx="2.77197" cy="68.7932" rx="2.5" ry="2.62469" fill="#F62424"/>
<ellipse cx="40.1621" cy="25.009" rx="2.5" ry="2.62469" fill="#F62424"/>
<ellipse cx="40.1621" cy="68.7932" rx="2.5" ry="2.62469" fill="#F62424"/>
<ellipse cx="77.5522" cy="25.009" rx="2.5" ry="2.62469" fill="#F62424"/>
<ellipse cx="77.5522" cy="68.7932" rx="2.5" ry="2.62469" fill="#F62424"/>
<ellipse cx="21.4668" cy="3.11688" rx="2.5" ry="2.62469" fill="#F62424"/>
<ellipse cx="21.4668" cy="46.9013" rx="2.5" ry="2.62469" fill="#F62424"/>
<ellipse cx="58.8569" cy="3.11688" rx="2.5" ry="2.62469" fill="#F62424"/>
<ellipse cx="58.8569" cy="46.9013" rx="2.5" ry="2.62469" fill="#F62424"/>
<ellipse cx="96.2471" cy="3.11688" rx="2.5" ry="2.62469" fill="#F62424"/>
<ellipse cx="96.2471" cy="46.9013" rx="2.5" ry="2.62469" fill="#F62424"/>
<ellipse cx="21.4668" cy="25.009" rx="2.5" ry="2.62469" fill="#F62424"/>
<ellipse cx="21.4668" cy="68.7932" rx="2.5" ry="2.62469" fill="#F62424"/>
<ellipse cx="58.8569" cy="25.009" rx="2.5" ry="2.62469" fill="#F62424"/>
<ellipse cx="58.8569" cy="68.7932" rx="2.5" ry="2.62469" fill="#F62424"/>
<ellipse cx="96.2471" cy="25.009" rx="2.5" ry="2.62469" fill="#F62424"/>
<ellipse cx="96.2471" cy="68.7932" rx="2.5" ry="2.62469" fill="#F62424"/>
</svg>
