<svg width="150" height="151" viewBox="0 0 150 151" fill="none" xmlns="http://www.w3.org/2000/svg">
<path d="M124.451 26.2618L133.092 32.2944C135.779 34.1705 135.194 38.305 132.091 39.3609L122.309 42.6899C119.102 43.7812 116.075 40.6413 117.283 37.4766L118.311 34.7849C118.544 34.1735 118.624 33.5142 118.543 32.8648L118.192 30.0352C117.764 26.5979 121.611 24.2791 124.451 26.2618Z" fill="#00BF59"/>
<g opacity="0.2">
<path d="M48.7376 100.59C40.3077 93.6925 36.2942 86.0286 35.8653 78.4125C44.1148 50.609 73.0707 46.0025 88.1977 61.1295C98.9248 71.8565 97.3923 89.4795 86.6653 100.207C77.0876 109.784 61.3802 110.934 48.7376 100.59Z" fill="#00BF59"/>
<path d="M115.787 33.5402C56.4053 28.5598 13.0948 71.4273 48.7376 100.59C61.3802 110.934 77.0876 109.784 86.6653 100.207C97.3923 89.4795 98.9248 71.8565 88.1977 61.1295C64.445 37.3768 6.59569 62.2788 48.3545 149.244" stroke="#2AFF32" stroke-width="2" stroke-linecap="round" stroke-dasharray="5.2 5.2"/>
</g>
</svg>
